<svg width="16" height="16" viewBox="0 0 16 16" fill="none" xmlns="http://www.w3.org/2000/svg">
<path fill-rule="evenodd" clip-rule="evenodd" d="M13.3656 4.2344C13.5156 4.38442 13.5998 4.58787 13.5998 4.8C13.5998 5.01213 13.5156 5.21557 13.3656 5.3656L6.96562 11.7656C6.8156 11.9156 6.61215 11.9998 6.40002 11.9998C6.18789 11.9998 5.98444 11.9156 5.83442 11.7656L2.63442 8.5656C2.48869 8.41472 2.40806 8.21263 2.40988 8.00288C2.4117 7.79312 2.49584 7.59247 2.64417 7.44414C2.79249 7.29582 2.99314 7.21168 3.2029 7.20986C3.41266 7.20804 3.61474 7.28867 3.76562 7.4344L6.40002 10.0688L12.2344 4.2344C12.3844 4.08442 12.5879 4.00017 12.8 4.00017C13.0122 4.00017 13.2156 4.08442 13.3656 4.2344Z" fill="white"/>
</svg>
