<svg width="16" height="15" viewBox="0 0 16 15" fill="none" xmlns="http://www.w3.org/2000/svg">
<path d="M7.38232 0.927017C7.68232 0.00601709 8.98532 0.00601709 9.28432 0.927017L10.3543 4.21902C10.4197 4.41951 10.5468 4.5942 10.7174 4.71812C10.888 4.84205 11.0934 4.90886 11.3043 4.90902H14.7663C15.7353 4.90902 16.1373 6.14902 15.3543 6.71902L12.5543 8.75302C12.3833 8.87705 12.256 9.05203 12.1907 9.25287C12.1253 9.45371 12.1251 9.6701 12.1903 9.87102L13.2603 13.163C13.5603 14.084 12.5053 14.851 11.7203 14.281L8.92032 12.247C8.74952 12.123 8.54388 12.0562 8.33282 12.0562C8.12176 12.0562 7.91611 12.123 7.74532 12.247L4.94532 14.281C4.16132 14.851 3.10732 14.084 3.40632 13.163L4.47632 9.87102C4.54149 9.6701 4.54138 9.45371 4.47598 9.25287C4.41059 9.05203 4.28329 8.87705 4.11232 8.75302L1.31332 6.72002C0.530318 6.15002 0.933318 4.91002 1.90132 4.91002H5.36232C5.57337 4.91007 5.77902 4.84336 5.94984 4.71942C6.12066 4.59548 6.24789 4.42067 6.31332 4.22002L7.38332 0.928017L7.38232 0.927017Z" fill="#111928"/>
</svg>
